<svg width="36" height="36" viewBox="0 0 36 36" fill="none" xmlns="http://www.w3.org/2000/svg">
    <mask id="mask0" mask-type="alpha" maskUnits="userSpaceOnUse" x="0" y="5" width="36" height="26">
        <path d="M0 27C0 29.209 1.791 31 4 31H32C34.209 31 36 29.209 36 27V26.5H0V27Z" fill="#880082"/>
        <path d="M0 22.07H36V26.67H0V22.07Z" fill="#3558A0"/>
        <path d="M0 17.83H36V22.33H0V17.83Z" fill="#138F3E"/>
        <path d="M0 13.5H36V18H0V13.5Z" fill="#FAD220"/>
        <path d="M0 9.16998H36V13.67H0V9.16998Z" fill="#FF5000"/>
        <path d="M32 5H4C1.791 5 0 6.791 0 9V9.33H36V9C36 6.791 34.209 5 32 5Z" fill="#FF000E"/>
    </mask>
    <g mask="url(#mask0)">
        <path d="M36 5H0V10.2H36V5Z" fill="#D42C00"/>
        <path d="M36 10.2H0V15.4H36V10.2Z" fill="#FD9855"/>
        <path d="M36 15.4H0V20.6H36V15.4Z" fill="white"/>
        <path d="M36 20.6H0V25.8H36V20.6Z" fill="#D161A2"/>
        <path d="M36 25.8H0V31H36V25.8Z" fill="#A20161"/>
    </g>
</svg>
