<svg width="35" height="36" viewBox="0 0 35 36" fill="none" xmlns="http://www.w3.org/2000/svg">
    <mask id="mask0" mask-type="alpha" maskUnits="userSpaceOnUse" x="0" y="5" width="35" height="26">
        <path d="M0 27C0 29.209 1.74125 31 3.88889 31H31.1111C33.2587 31 35 29.209 35 27V26.5H0V27Z" fill="#880082"/>
        <path d="M0 22.07H35V26.67H0V22.07Z" fill="#3558A0"/>
        <path d="M0 17.83H35V22.33H0V17.83Z" fill="#138F3E"/>
        <path d="M0 13.5H35V18H0V13.5Z" fill="#FAD220"/>
        <path d="M0 9.16998H35V13.67H0V9.16998Z" fill="#FF5000"/>
        <path d="M31.1111 5H3.88889C1.74125 5 0 6.791 0 9V9.33H35V9C35 6.791 33.2587 5 31.1111 5Z" fill="#FF000E"/>
    </mask>
    <g mask="url(#mask0)">
        <path fill-rule="evenodd" clip-rule="evenodd" d="M0 21.25V24.5H17.5H35V21.25V18H17.5H0V21.25Z" fill="#9C5CD4"/>
        <path fill-rule="evenodd" clip-rule="evenodd" d="M0 14.75V18H17.5H35V14.75V11.5H17.5H0V14.75Z" fill="#FCFCFC"/>
        <path fill-rule="evenodd" clip-rule="evenodd" d="M0 8.25V11.5H17.5H35V8.25V5H17.5H0V8.25Z" fill="#FCF434"/>
        <path fill-rule="evenodd" clip-rule="evenodd" d="M0 27.75V31H17.5H35V27.75V24.5H17.5H0V27.75Z" fill="#2C2C2C"/>
    </g>
</svg>
