<svg width="35" height="36" viewBox="0 0 35 36" fill="none" xmlns="http://www.w3.org/2000/svg">
    <mask id="mask0" mask-type="alpha" maskUnits="userSpaceOnUse" x="0" y="5" width="35" height="26">
        <path d="M0 27C0 29.209 1.74125 31 3.88889 31H31.1111C33.2587 31 35 29.209 35 27V26.5H0V27Z" fill="#880082"/>
        <path d="M0 22.07H35V26.67H0V22.07Z" fill="#3558A0"/>
        <path d="M0 17.83H35V22.33H0V17.83Z" fill="#138F3E"/>
        <path d="M0 13.5H35V18H0V13.5Z" fill="#FAD220"/>
        <path d="M0 9.16998H35V13.67H0V9.16998Z" fill="#FF5000"/>
        <path d="M31.1111 5H3.88889C1.74125 5 0 6.791 0 9V9.33H35V9C35 6.791 33.2587 5 31.1111 5Z" fill="#FF000E"/>
    </mask>
    <g mask="url(#mask0)">
        <path d="M0 5H35V31H0V5Z" fill="#5BCEFA"/>
        <path d="M0 10.2H35V25.8H0V10.2Z" fill="#F5A9B8"/>
        <path d="M0 15.4001H35V20.6001H0V15.4001Z" fill="white"/>
    </g>
</svg>
