<svg width="28" height="28" viewBox="0 0 28 28" fill="none" xmlns="http://www.w3.org/2000/svg">
    <path d="M13.7189 0.517471C10.4656 0.502833 7.31402 1.6636 4.83138 3.79082C2.34874 5.91805 0.698122 8.87206 0.176638 12.121C-0.344846 15.37 0.297056 18.7006 1.9868 21.5135C3.67655 24.3262 6.30315 26.4363 9.39385 27.4641C10.0768 27.5792 10.3044 27.1185 10.3044 26.7731V24.47C6.54838 25.2761 5.75166 22.6275 5.75166 22.6275C5.06875 21.0153 4.15821 20.5547 4.15821 20.5547C3.02003 19.7486 4.27203 19.7486 4.27203 19.7486C5.63784 19.7486 6.43456 21.1305 6.43456 21.1305C7.57275 23.2033 9.62146 22.6275 10.4182 22.282C10.4182 21.3607 10.8734 20.785 11.2149 20.4395C8.14181 20.094 4.95493 18.9425 4.95493 13.5301C4.95493 12.1483 5.52402 10.8815 6.43456 9.9603C6.20693 9.49962 5.75166 8.11775 6.43456 6.27528C6.43456 6.27528 7.57275 5.92982 10.3044 7.65716C12.5406 7.04576 14.8972 7.04576 17.1334 7.65716C19.7513 5.92982 20.8894 6.27528 20.8894 6.27528C21.5723 8.11775 21.1171 9.49962 20.8894 9.9603C21.9138 10.8815 22.3691 12.1483 22.3691 13.6453C22.3691 18.9425 19.1821 20.094 16.1091 20.4395C16.6781 20.9001 17.1334 21.5911 17.1334 22.9729V26.7731C17.1334 27.1185 17.2473 27.5792 18.044 27.4641C21.1346 26.4363 23.7612 24.3262 25.451 21.5135C27.1408 18.7006 27.7826 15.37 27.2612 12.121C26.7397 8.87206 25.089 5.91805 22.6064 3.79082C20.1237 1.6636 16.9722 0.502833 13.7189 0.517471Z" fill="white"/>
</svg>
