<svg width="201" height="200" viewBox="0 0 201 200" fill="none" xmlns="http://www.w3.org/2000/svg">
    <path d="M82.4 83.8999C76.7 83.8999 72.2 88.8999 72.2 94.9999C72.2 101.1 76.8 106.1 82.4 106.1C88.1 106.1 92.6 101.1 92.6 94.9999C92.7 88.8999 88.1 83.8999 82.4 83.8999ZM118.9 83.8999C113.2 83.8999 108.7 88.8999 108.7 94.9999C108.7 101.1 113.3 106.1 118.9 106.1C124.6 106.1 129.1 101.1 129.1 94.9999C129.1 88.8999 124.6 83.8999 118.9 83.8999Z" fill="white"/>
    <path d="M167.5 0H33.5C22.2 0 13 9.2 13 20.6V155.8C13 167.2 22.2 176.4 33.5 176.4H146.9L141.6 157.9L154.4 169.8L166.5 181L188 200V20.6C188 9.2 178.8 0 167.5 0ZM128.9 130.6C128.9 130.6 125.3 126.3 122.3 122.5C135.4 118.8 140.4 110.6 140.4 110.6C136.3 113.3 132.4 115.2 128.9 116.5C123.9 118.6 119.1 120 114.4 120.8C104.8 122.6 96 122.1 88.5 120.7C82.8 119.6 77.9 118 73.8 116.4C71.5 115.5 69 114.4 66.5 113C66.2 112.8 65.9 112.7 65.6 112.5C65.4 112.4 65.3 112.3 65.2 112.2C63.4 111.2 62.4 110.5 62.4 110.5C62.4 110.5 67.2 118.5 79.9 122.3C76.9 126.1 73.2 130.6 73.2 130.6C51.1 129.9 42.7 115.4 42.7 115.4C42.7 83.2 57.1 57.1 57.1 57.1C71.5 46.3 85.2 46.6 85.2 46.6L86.2 47.8C68.2 53 59.9 60.9 59.9 60.9C59.9 60.9 62.1 59.7 65.8 58C76.5 53.3 85 52 88.5 51.7C89.1 51.6 89.6 51.5 90.2 51.5C96.3 50.7 103.2 50.5 110.4 51.3C119.9 52.4 130.1 55.2 140.5 60.9C140.5 60.9 132.6 53.4 115.6 48.2L117 46.6C117 46.6 130.7 46.3 145.1 57.1C145.1 57.1 159.5 83.2 159.5 115.4C159.5 115.4 151 129.9 128.9 130.6V130.6Z" fill="white"/>
</svg>
