<svg width="28" height="28" viewBox="0 0 28 28" fill="none" xmlns="http://www.w3.org/2000/svg">
    <path fill-rule="evenodd" clip-rule="evenodd" d="M0 0.153076H27.6935V27.8466H0V0.153076ZM6.37417 8.8075C6.54469 8.96119 6.63179 9.18693 6.60867 9.41532V17.6382C6.65927 17.9347 6.56577 18.2377 6.35679 18.4543L4.40256 20.8248V21.1374H9.94393V20.8248L7.98968 18.4543C7.77915 18.2381 7.67987 17.9371 7.72043 17.6382V10.5267L12.5843 21.1374H13.1489L17.3266 10.5267V18.984C17.3266 19.2098 17.3266 19.2532 17.1789 19.4008L15.6764 20.8595V21.1721H22.9722V20.8595L21.5217 19.4355C21.3937 19.3379 21.3302 19.1775 21.3567 19.0187V8.55565C21.3302 8.39688 21.3937 8.23645 21.5217 8.1389L23.0069 6.71486V6.40227H17.8651L14.1998 15.5455L10.0307 6.40227H4.63706V6.71486L6.37417 8.8075Z" fill="white"/>
</svg>
