<svg width="75" height="27" viewBox="0 0 75 27" fill="none" xmlns="http://www.w3.org/2000/svg">
    <path d="M15.3919 2.89933C9.80019 -3.08054 0 1.08725 0 9.48322C0 14.0134 0 22.4698 0 26.9396C1.72946 26.9396 3.40126 26.9396 5.1307 26.9396C5.1307 22.4698 5.1307 14.0134 5.1307 9.48322C5.1307 7.30873 6.86014 5.49665 8.99312 5.49665C11.1261 5.49665 12.8555 7.30873 12.8555 9.48322C12.8555 14.0134 12.8555 22.4698 12.8555 26.9396C13.7201 26.9396 14.5272 26.9396 15.3919 26.9396C16.2567 26.9396 17.1214 26.9396 17.9861 26.9396C17.9861 22.4698 17.9861 14.0134 17.9861 9.48322C17.9861 7.30873 19.7155 5.49665 21.8485 5.49665C23.9238 5.49665 25.6533 7.30873 25.6533 9.48322C25.6533 14.0134 25.6533 22.4698 25.6533 26.9396C27.3827 26.9396 29.1122 26.9396 30.784 26.9396C30.784 22.4698 30.784 14.0134 30.784 9.48322C30.784 1.08725 21.0414 -3.08054 15.3919 2.89933ZM61.6257 5.43624H73.1553V0.0604038H61.6257C57.3597 0.0604038 53.9008 3.68456 53.9008 8.15436C53.9008 12.0805 56.5526 15.3423 60.1268 16.0671C60.588 16.1879 61.1068 16.1879 61.6257 16.1879H67.2752C68.7164 16.1879 69.8693 17.396 69.8693 18.906C69.8693 20.3557 68.7164 21.5638 67.2752 21.5638H55.7456V26.9396H67.2752C71.5411 26.9396 75 23.3758 75 18.906C75 14.9799 72.3482 11.7181 68.774 10.9933C68.3128 10.8725 67.794 10.8121 67.2752 10.8121H61.6257C60.1845 10.8121 59.0315 9.60403 59.0315 8.15436C59.0315 6.6443 60.1845 5.43624 61.6257 5.43624Z" fill="#B71C1C"/>
    <path d="M48.7649 0V14.8591C48.7649 18.604 45.8825 21.5638 42.3083 21.5638C38.7917 21.5638 35.9093 18.604 35.9093 14.8591V0H30.7787V14.8591C30.7787 21.5638 35.967 27 42.3083 27C48.7072 27 53.8955 21.5638 53.8955 14.8591V0H48.7649Z" fill="white"/>
</svg>
