<svg width="649" height="76" viewBox="0 0 649 76" fill="none" xmlns="http://www.w3.org/2000/svg">
    <path d="M243.297 76V0.170022H228.143V76H243.297ZM310.825 21.9329C314.401 18.3624 317.977 14.7919 321.552 11.2215C297.715 -12.5817 256.85 4.25056 256.85 37.915C256.85 71.7494 297.715 88.5817 321.552 64.7785C317.977 61.2081 314.401 57.6376 310.825 54.0671C296.523 68.349 272.004 58.1477 272.004 37.915C272.004 17.6823 296.523 7.65101 310.825 21.9329ZM410.878 38.085C410.878 17.1723 394.021 0.170022 373.078 0.170022C352.134 0.170022 335.107 17.1723 335.107 38.085C335.107 58.9978 352.134 75.83 373.078 75.83C394.021 75.83 410.878 58.9978 410.878 38.085ZM350.262 38.085C350.262 25.5034 360.478 15.302 373.078 15.302C385.508 15.302 395.724 25.5034 395.724 38.085C395.724 50.6667 385.508 60.698 373.078 60.698C360.478 60.698 350.262 50.6667 350.262 38.085ZM439.66 0.170022C434.552 0.170022 429.614 0.170022 424.506 0.170022C424.506 12.9217 424.506 25.5034 424.506 38.085C424.506 50.6667 424.506 63.2483 424.506 76C429.614 76 434.552 76 439.66 76C439.66 63.2483 439.66 50.6667 439.66 38.085C439.66 25.5034 449.877 15.302 462.477 15.302C462.477 10.3714 462.477 5.27069 462.477 0.170022C453.623 0.170022 446.641 2.55034 439.66 7.82103C439.66 5.27069 439.66 2.72036 439.66 0.170022ZM529.284 0V41.8255C529.284 52.3669 520.771 60.698 510.214 60.698C499.827 60.698 491.314 52.3669 491.314 41.8255V0H476.16V41.8255C476.16 60.698 491.484 76 510.214 76C529.114 76 544.438 60.698 544.438 41.8255V0H529.284ZM603.538 8.16107C587.021 -8.67114 558.075 3.0604 558.075 26.6935C558.075 39.4452 558.075 63.2483 558.075 75.83C563.184 75.83 568.121 75.83 573.23 75.83C573.23 63.2483 573.23 39.4452 573.23 26.6935C573.23 20.5727 578.338 15.472 584.638 15.472C590.938 15.472 596.046 20.5727 596.046 26.6935C596.046 39.4452 596.046 63.2483 596.046 75.83C598.6 75.83 600.984 75.83 603.538 75.83C606.092 75.83 608.646 75.83 611.2 75.83C611.2 63.2483 611.2 39.4452 611.2 26.6935C611.2 20.5727 616.308 15.472 622.608 15.472C628.738 15.472 633.846 20.5727 633.846 26.6935C633.846 39.4452 633.846 63.2483 633.846 75.83C638.954 75.83 644.062 75.83 649 75.83C649 63.2483 649 39.4452 649 26.6935C649 3.0604 620.224 -8.67114 603.538 8.16107Z" fill="white"/>
    <path d="M45.462 8.16108C28.9461 -8.67114 0 3.06041 0 26.6935C0 39.4452 0 63.2483 0 75.83C5.10819 75.83 10.046 75.83 15.1542 75.83C15.1542 63.2483 15.1542 39.4452 15.1542 26.6935C15.1542 20.5727 20.2623 15.472 26.5623 15.472C32.8623 15.472 37.9704 20.5727 37.9704 26.6935C37.9704 39.4452 37.9704 63.2483 37.9704 75.83C40.5241 75.83 42.9079 75.83 45.462 75.83C48.0161 75.83 50.5701 75.83 53.1242 75.83C53.1242 63.2483 53.1242 39.4452 53.1242 26.6935C53.1242 20.5727 58.2323 15.472 64.5323 15.472C70.6621 15.472 75.7702 20.5727 75.7702 26.6935C75.7702 39.4452 75.7702 63.2483 75.7702 75.83C80.8783 75.83 85.9864 75.83 90.9243 75.83C90.9243 63.2483 90.9243 39.4452 90.9243 26.6935C90.9243 3.06041 62.1485 -8.67114 45.462 8.16108ZM182.019 15.302H216.073V0.170029H182.019C169.419 0.170029 159.203 10.3714 159.203 22.953C159.203 34.0045 167.035 43.1857 177.592 45.226C178.954 45.566 180.487 45.566 182.019 45.566H198.706C202.962 45.566 206.368 48.9665 206.368 53.217C206.368 57.2975 202.962 60.698 198.706 60.698H164.651V75.83H198.706C211.306 75.83 221.522 65.7987 221.522 53.217C221.522 42.1656 213.689 32.9843 203.133 30.9441C201.77 30.604 200.238 30.434 198.706 30.434H182.019C177.762 30.434 174.357 27.0336 174.357 22.953C174.357 18.7025 177.762 15.302 182.019 15.302Z" fill="#B71C1C"/>
    <path d="M144.033 0V41.8255C144.033 52.3669 135.52 60.698 124.963 60.698C114.576 60.698 106.063 52.3669 106.063 41.8255V0H90.9086V41.8255C90.9086 60.698 106.233 76 124.963 76C143.863 76 159.187 60.698 159.187 41.8255V0H144.033Z" fill="white"/>
</svg>
