<svg width="1944" height="225" viewBox="0 0 1944 225" fill="none" xmlns="http://www.w3.org/2000/svg">
  <mask id="mask0" mask-type="alpha" maskUnits="userSpaceOnUse" x="0" y="0" width="663" height="225">
    <path d="M135.891 23.7393C86.5249 -26.2648 0 8.58657 0 78.7942C0 116.676 0 187.389 0 224.766C15.2698 224.766 30.029 224.766 45.2987 224.766C45.2987 187.389 45.2987 116.676 45.2987 78.7942C45.2987 60.6107 60.5685 45.4582 79.3948 45.4582C98.2268 45.4582 113.497 60.6107 113.497 78.7942C113.497 116.676 113.497 187.389 113.497 224.766C121.131 224.766 128.256 224.766 135.891 224.766C143.526 224.766 151.16 224.766 158.795 224.766C158.795 187.389 158.795 116.676 158.795 78.7942C158.795 60.6107 174.059 45.4582 192.891 45.4582C211.213 45.4582 226.483 60.6107 226.483 78.7942C226.483 116.676 226.483 187.389 226.483 224.766C241.752 224.766 257.022 224.766 271.781 224.766C271.781 187.389 271.781 116.676 271.781 78.7942C271.781 8.58657 185.767 -26.2648 135.891 23.7393ZM544.073 44.9532H645.862V0H544.073C506.409 0 475.87 30.3055 475.87 67.6822C475.87 100.513 499.285 127.788 530.84 133.849C534.913 134.86 539.49 134.86 544.073 134.86H593.95C606.673 134.86 616.854 144.961 616.854 157.589C616.854 169.711 606.673 179.813 593.95 179.813H492.155V224.766H593.95C631.614 224.766 662.147 194.965 662.147 157.589C662.147 124.757 638.738 97.4825 607.183 91.4214C603.11 90.4116 598.527 89.9062 593.95 89.9062H544.073C531.345 89.9062 521.169 79.8045 521.169 67.6822C521.169 55.055 531.345 44.9532 544.073 44.9532Z" fill="#B71C1C" />
  </mask>
  <g mask="url(#mask0)">

    <g id="flag7">
      <svg width="663" height="225" viewBox="0 0 663 225" fill="none" xmlns="http://www.w3.org/2000/svg">
        <path d="M-85 0H715V225H-85V0Z" fill="#21B1FF" />
        <path d="M-85 0H715V150H-85V0Z" fill="#FFD800" />
        <path d="M-85 0H715V75H-85V0Z" fill="#FF218C" />
      </svg>

    </g>

    <g id="flag6">
      <svg width="663" height="225" viewBox="0 0 663 225" fill="none" xmlns="http://www.w3.org/2000/svg">
        <path d="M-85 0H715V225H-85V0Z" fill="#5BCEFA" />
        <path d="M-85 45H715V180H-85V45Z" fill="#F5A9B8" />
        <path d="M-85 90H715V135H-85V90Z" fill="white" />
      </svg>

    </g>

    <g id="flag5">
      <svg width="663" height="225" viewBox="0 0 663 225" fill="none" xmlns="http://www.w3.org/2000/svg">
        <path d="M-85 0H715V225H-85V0Z" fill="#333EBD" />
        <path d="M-85 0H715V180H-85V0Z" fill="black" />
        <path d="M-85 0H715V135H-85V0Z" fill="#BE18D6" />
        <path d="M-85 0H715V90H-85V0Z" fill="white" />
        <path d="M-85 0H715V45H-85V0Z" fill="#FF75A2" />
      </svg>

    </g>

    <g id="flag4">
      <svg width="663" height="225" viewBox="0 0 663 225" fill="none" xmlns="http://www.w3.org/2000/svg">
        <path fill-rule="evenodd" clip-rule="evenodd" d="M-55 140.625V168.75H315.5H686V140.625V112.5H315.5H-55V140.625Z" fill="#9C5CD4" />
        <path fill-rule="evenodd" clip-rule="evenodd" d="M-55 84.375V112.5H315.5H686V84.375V56.25H315.5H-55V84.375Z" fill="#FCFCFC" />
        <path fill-rule="evenodd" clip-rule="evenodd" d="M-55 28.125V56.25H315.5H686V28.125V0H315.5H-55V28.125Z" fill="#FCF434" />
        <path fill-rule="evenodd" clip-rule="evenodd" d="M-55 196.875V225H315.5H686V196.875V168.75H315.5H-55V196.875Z" fill="#2C2C2C" />
      </svg>
    </g>

    <g id="flag3">
      <svg width="663" height="224" viewBox="0 0 663 224" fill="none" xmlns="http://www.w3.org/2000/svg">
        <path d="M-114 -1H686V224H-114V-1Z" fill="white" />
        <path d="M-114 -1H686V55.25H-114V-1Z" fill="black" />
        <path d="M-114 167.75H686V224H-114V167.75Z" fill="#800080" />
        <path d="M-114 55.25H686V111.5H-114V55.25Z" fill="#A3A3A3" />
      </svg>
    </g>

    <g id="flag2">
      <svg width="663" height="225" viewBox="0 0 663 225" fill="none" xmlns="http://www.w3.org/2000/svg">
        <path d="M821 0H-128V90H821V0Z" fill="#D60270" />
        <path d="M821 90H-128V135H821V90Z" fill="#9B4F96" />
        <path d="M821 135H-128V225H821V135Z" fill="#0038A8" />
      </svg>
    </g>

    <g id="flag1">
      <svg width="663" height="225" viewBox="0 0 663 225" fill="none" xmlns="http://www.w3.org/2000/svg">
        <path d="M726 0H-14V45H726V0Z" fill="#D42C00" />
        <path d="M726 45H-14V90H726V45Z" fill="#FD9855" />
        <path d="M726 90H-14V135H726V90Z" fill="white" />
        <path d="M726 135H-14V180H726V135Z" fill="#D161A2" />
        <path d="M726 180H-14V225H726V180Z" fill="#A20161" />
      </svg>

    </g>

    <g id="flag0">
      <svg width="663" height="225" viewBox="0 0 663 225" fill="none" xmlns="http://www.w3.org/2000/svg">
        <path d="M-44 0H727.13V225H-44V0Z" fill="#8E008E" />
        <path d="M-44 0H727.13V192.857H-44V0Z" fill="#400098" />
        <path d="M-44 0H727.13V160.714H-44V0Z" fill="#00C0C0" />
        <path d="M-44 0H727.13V128.571H-44V0Z" fill="#008E00" />
        <path d="M-44 0H727.13V96.4286H-44V0Z" fill="#FFFF00" />
        <path d="M-44 0H727.13V64.2857H-44V0Z" fill="#FF8E00" />
        <path d="M-44 0H727.13V32.1429H-44V0Z" fill="#FF0000" />
      </svg>

    </g>

  </g>
  <path d="M731.727 224.766V0.502831H686.447V224.766H731.727ZM933.494 64.8654C944.176 54.3057 954.858 43.7463 965.546 33.1869C894.32 -37.2095 772.222 12.5708 772.222 112.131C772.222 212.194 894.32 261.975 965.546 191.579C954.858 181.019 944.176 170.46 933.494 159.9C890.759 202.138 817.497 171.968 817.497 112.131C817.497 52.2944 890.759 22.6274 933.494 64.8654ZM1232.44 112.634C1232.44 50.7859 1182.07 0.502831 1119.5 0.502831C1056.92 0.502831 1006.05 50.7859 1006.05 112.634C1006.05 174.482 1056.92 224.262 1119.5 224.262C1182.07 224.262 1232.44 174.482 1232.44 112.634ZM1051.32 112.634C1051.32 75.4245 1081.85 45.2548 1119.5 45.2548C1156.64 45.2548 1187.16 75.4245 1187.16 112.634C1187.16 149.844 1156.64 179.511 1119.5 179.511C1081.85 179.511 1051.32 149.844 1051.32 112.634ZM1318.43 0.502831C1303.18 0.502831 1288.42 0.502831 1273.16 0.502831C1273.16 38.2152 1273.16 75.4245 1273.16 112.634C1273.16 149.844 1273.16 187.053 1273.16 224.766C1288.42 224.766 1303.18 224.766 1318.43 224.766C1318.43 187.053 1318.43 149.844 1318.43 112.634C1318.43 75.4245 1348.96 45.2548 1386.61 45.2548C1386.61 30.6727 1386.61 15.5878 1386.61 0.502831C1360.15 0.502831 1339.29 7.54245 1318.43 23.1302C1318.43 15.5878 1318.43 8.04527 1318.43 0.502831ZM1586.22 0V123.697C1586.22 154.872 1560.79 179.511 1529.24 179.511C1498.21 179.511 1472.77 154.872 1472.77 123.697V0H1427.49V123.697C1427.49 179.511 1473.28 224.766 1529.24 224.766C1585.71 224.766 1631.5 179.511 1631.5 123.697V0H1586.22ZM1808.08 24.1359C1758.73 -25.6444 1672.25 9.05098 1672.25 78.9444C1672.25 116.657 1672.25 187.053 1672.25 224.262C1687.51 224.262 1702.26 224.262 1717.53 224.262C1717.53 187.053 1717.53 116.657 1717.53 78.9444C1717.53 60.8423 1732.79 45.7576 1751.61 45.7576C1770.43 45.7576 1785.7 60.8423 1785.7 78.9444C1785.7 116.657 1785.7 187.053 1785.7 224.262C1793.33 224.262 1800.45 224.262 1808.08 224.262C1815.72 224.262 1823.35 224.262 1830.98 224.262C1830.98 187.053 1830.98 116.657 1830.98 78.9444C1830.98 60.8423 1846.24 45.7576 1865.06 45.7576C1883.38 45.7576 1898.64 60.8423 1898.64 78.9444C1898.64 116.657 1898.64 187.053 1898.64 224.262C1913.9 224.262 1929.17 224.262 1943.92 224.262C1943.92 187.053 1943.92 116.657 1943.92 78.9444C1943.92 9.05098 1857.94 -25.6444 1808.08 24.1359Z" fill="white" />
  <path d="M434.062 0V123.697C434.062 154.872 408.31 179.511 376.376 179.511C344.959 179.511 319.201 154.872 319.201 123.697V0H273.364V123.697C273.364 179.511 319.718 224.766 376.376 224.766C433.551 224.766 479.905 179.511 479.905 123.697V0H434.062Z" fill="white" />
  <animate attributeName="opacity" calcMode="discrete" values="1;0;0;0;0;0;0;0" dur="4s" href="#flag0" repeatCount="indefinite" />
  <animate attributeName="opacity" calcMode="discrete" values="0;1;0;0;0;0;0;0" dur="4s" href="#flag1" repeatCount="indefinite" />
  <animate attributeName="opacity" calcMode="discrete" values="0;0;1;0;0;0;0;0" dur="4s" href="#flag2" repeatCount="indefinite" />
  <animate attributeName="opacity" calcMode="discrete" values="0;0;0;1;0;0;0;0" dur="4s" href="#flag3" repeatCount="indefinite" />
  <animate attributeName="opacity" calcMode="discrete" values="0;0;0;0;1;0;0;0" dur="4s" href="#flag4" repeatCount="indefinite" />
  <animate attributeName="opacity" calcMode="discrete" values="0;0;0;0;0;1;0;0" dur="4s" href="#flag5" repeatCount="indefinite" />
  <animate attributeName="opacity" calcMode="discrete" values="0;0;0;0;0;0;1;0" dur="4s" href="#flag6" repeatCount="indefinite" />
  <animate attributeName="opacity" calcMode="discrete" values="0;0;0;0;0;0;0;1" dur="4s" href="#flag7" repeatCount="indefinite" />

</svg>
