<svg width="1030" height="120" viewBox="0 0 1030 120" fill="none" xmlns="http://www.w3.org/2000/svg">
<path d="M387.711 119.094V0.266429H363.719V119.094H387.711ZM494.618 34.3694C500.279 28.7743 505.939 23.1793 511.602 17.5843C473.862 -19.7157 409.168 6.66072 409.168 59.4136C409.168 112.433 473.862 138.809 511.602 101.509C505.939 95.9143 500.279 90.3195 494.618 84.7244C471.975 107.104 433.157 91.1187 433.157 59.4136C433.157 27.7086 471.975 11.9893 494.618 34.3694ZM653.016 59.6802C653.016 26.9093 626.329 0.266429 593.174 0.266429C560.016 0.266429 533.061 26.9093 533.061 59.6802C533.061 92.4508 560.016 118.827 593.174 118.827C626.329 118.827 653.016 92.4508 653.016 59.6802ZM557.051 59.6802C557.051 39.9642 573.226 23.9786 593.174 23.9786C612.852 23.9786 629.024 39.9642 629.024 59.6802C629.024 79.3958 612.852 95.1151 593.174 95.1151C573.226 95.1151 557.051 79.3958 557.051 59.6802ZM698.582 0.266429C690.498 0.266429 682.678 0.266429 674.593 0.266429C674.593 20.2486 674.593 39.9642 674.593 59.6802C674.593 79.3958 674.593 99.1115 674.593 119.094C682.678 119.094 690.498 119.094 698.582 119.094C698.582 99.1115 698.582 79.3958 698.582 59.6802C698.582 39.9642 714.757 23.9786 734.706 23.9786C734.706 16.2521 734.706 8.2593 734.706 0.266429C720.688 0.266429 709.635 3.99642 698.582 12.2557C698.582 8.2593 698.582 4.26285 698.582 0.266429ZM840.472 0V65.5416C840.472 82.0601 826.995 95.1151 810.282 95.1151C793.836 95.1151 780.359 82.0601 780.359 65.5416V0H756.367V65.5416C756.367 95.1151 780.629 119.094 810.282 119.094C840.201 119.094 864.464 95.1151 864.464 65.5416V0H840.472ZM958.026 12.7886C931.877 -13.5879 886.053 4.79573 886.053 41.8293C886.053 61.8115 886.053 99.1115 886.053 118.827C894.14 118.827 901.957 118.827 910.045 118.827C910.045 99.1115 910.045 61.8115 910.045 41.8293C910.045 32.2377 918.13 24.245 928.104 24.245C938.078 24.245 946.165 32.2377 946.165 41.8293C946.165 61.8115 946.165 99.1115 946.165 118.827C950.209 118.827 953.983 118.827 958.026 118.827C962.07 118.827 966.114 118.827 970.158 118.827C970.158 99.1115 970.158 61.8115 970.158 41.8293C970.158 32.2377 978.242 24.245 988.216 24.245C997.92 24.245 1006.01 32.2377 1006.01 41.8293C1006.01 61.8115 1006.01 99.1115 1006.01 118.827C1014.1 118.827 1022.18 118.827 1030 118.827C1030 99.1115 1030 61.8115 1030 41.8293C1030 4.79573 984.443 -13.5879 958.026 12.7886Z" fill="white"/>
<path d="M72.0027 12.5785C45.8459 -13.9166 0 4.54966 0 41.7497C0 61.8218 0 99.2895 0 119.094C8.0908 119.094 15.9111 119.094 24.0019 119.094C24.0019 99.2895 24.0019 61.8218 24.0019 41.7497C24.0019 32.1151 32.0927 24.0864 42.0679 24.0864C52.0462 24.0864 60.137 32.1151 60.137 41.7497C60.137 61.8218 60.137 99.2895 60.137 119.094C64.1824 119.094 67.9573 119.094 72.0027 119.094C76.0481 119.094 80.0935 119.094 84.1389 119.094C84.1389 99.2895 84.1389 61.8218 84.1389 41.7497C84.1389 32.1151 92.2267 24.0864 102.205 24.0864C111.913 24.0864 120.003 32.1151 120.003 41.7497C120.003 61.8218 120.003 99.2895 120.003 119.094C128.094 119.094 136.185 119.094 144.005 119.094C144.005 99.2895 144.005 61.8218 144.005 41.7497C144.005 4.54966 98.4301 -13.9166 72.0027 12.5785ZM288.281 23.8188H342.215V0H288.281C268.325 0 252.143 16.0576 252.143 35.8619C252.143 53.2578 264.55 67.7096 281.27 70.9211C283.427 71.4564 285.853 71.4564 288.281 71.4564H314.709C321.45 71.4564 326.845 76.8089 326.845 83.4995C326.845 89.9226 321.45 95.2751 314.709 95.2751H260.772V119.094H314.709C334.665 119.094 350.844 103.304 350.844 83.4995C350.844 66.1037 338.44 51.6518 321.721 48.4403C319.563 47.9053 317.134 47.6375 314.709 47.6375H288.281C281.537 47.6375 276.145 42.285 276.145 35.8619C276.145 29.1713 281.537 23.8188 288.281 23.8188Z" fill="#B71C1C"/>
<path d="M229.991 0V65.5416C229.991 82.0601 216.346 95.1151 199.426 95.1151C182.779 95.1151 169.131 82.0601 169.131 65.5416V0H144.844V65.5416C144.844 95.1151 169.405 119.094 199.426 119.094C229.72 119.094 254.281 95.1151 254.281 65.5416V0H229.991Z" fill="white"/>
</svg>
