<svg width="1398" height="164" viewBox="0 0 1398 164" fill="none" xmlns="http://www.w3.org/2000/svg">
  <path d="M523.947 163.9V0.366667H491.312V163.9H523.947ZM669.371 47.3C677.072 39.6 684.772 31.9 692.472 24.2C641.137 -27.1333 553.133 9.16667 553.133 81.7667C553.133 154.733 641.137 191.033 692.472 139.7C684.772 132 677.072 124.3 669.371 116.6C638.57 147.4 585.768 125.4 585.768 81.7667C585.768 38.1333 638.57 16.5 669.371 47.3ZM884.837 82.1333C884.837 37.0333 848.536 0.366667 803.434 0.366667C758.332 0.366667 721.663 37.0333 721.663 82.1333C721.663 127.233 758.332 163.533 803.434 163.533C848.536 163.533 884.837 127.233 884.837 82.1333ZM754.298 82.1333C754.298 55 776.299 33 803.434 33C830.201 33 852.202 55 852.202 82.1333C852.202 109.267 830.201 130.9 803.434 130.9C776.299 130.9 754.298 109.267 754.298 82.1333ZM946.821 0.366667C935.821 0.366667 925.187 0.366667 914.186 0.366667C914.186 27.8667 914.186 55 914.186 82.1333C914.186 109.267 914.186 136.4 914.186 163.9C925.187 163.9 935.821 163.9 946.821 163.9C946.821 136.4 946.821 109.267 946.821 82.1333C946.821 55 968.822 33 995.957 33C995.957 22.3667 995.957 11.3667 995.957 0.366667C976.889 0.366667 961.855 5.5 946.821 16.8667C946.821 11.3667 946.821 5.86667 946.821 0.366667ZM1139.83 0V90.2C1139.83 112.933 1121.49 130.9 1098.76 130.9C1076.39 130.9 1058.06 112.933 1058.06 90.2V0H1025.42V90.2C1025.42 130.9 1058.42 163.9 1098.76 163.9C1139.46 163.9 1172.46 130.9 1172.46 90.2V0H1139.83ZM1299.74 17.6C1264.17 -18.7 1201.83 6.6 1201.83 57.5667C1201.83 85.0667 1201.83 136.4 1201.83 163.533C1212.83 163.533 1223.47 163.533 1234.47 163.533C1234.47 136.4 1234.47 85.0667 1234.47 57.5667C1234.47 44.3667 1245.47 33.3667 1259.03 33.3667C1272.6 33.3667 1283.6 44.3667 1283.6 57.5667C1283.6 85.0667 1283.6 136.4 1283.6 163.533C1289.1 163.533 1294.24 163.533 1299.74 163.533C1305.24 163.533 1310.74 163.533 1316.24 163.533C1316.24 136.4 1316.24 85.0667 1316.24 57.5667C1316.24 44.3667 1327.24 33.3667 1340.8 33.3667C1354 33.3667 1365.01 44.3667 1365.01 57.5667C1365.01 85.0667 1365.01 136.4 1365.01 163.533C1376.01 163.533 1387.01 163.533 1397.64 163.533C1397.64 136.4 1397.64 85.0667 1397.64 57.5667C1397.64 6.6 1335.67 -18.7 1299.74 17.6Z" fill="white"/>
  <path d="M97.9037 17.6C62.3362 -18.7 0 6.6 0 57.5667C0 85.0667 0 136.4 0 163.533C11.0006 163.533 21.6344 163.533 32.6349 163.533C32.6349 136.4 32.6349 85.0667 32.6349 57.5667C32.6349 44.3667 43.6354 33.3667 57.2027 33.3667C70.7699 33.3667 81.7704 44.3667 81.7704 57.5667C81.7704 85.0667 81.7704 136.4 81.7704 163.533C87.2699 163.533 92.4035 163.533 97.9037 163.533C103.404 163.533 108.904 163.533 114.404 163.533C114.404 136.4 114.404 85.0667 114.404 57.5667C114.404 44.3667 125.405 33.3667 138.972 33.3667C152.173 33.3667 163.173 44.3667 163.173 57.5667C163.173 85.0667 163.173 136.4 163.173 163.533C174.174 163.533 185.174 163.533 195.808 163.533C195.808 136.4 195.808 85.0667 195.808 57.5667C195.808 6.6 133.839 -18.7 97.9037 17.6ZM391.983 33H465.32V0.366669H391.983C364.849 0.366669 342.848 22.3667 342.848 49.5C342.848 73.3333 359.715 93.1333 382.449 97.5333C385.383 98.2667 388.683 98.2667 391.983 98.2667H427.918C437.085 98.2667 444.419 105.6 444.419 114.767C444.419 123.567 437.085 130.9 427.918 130.9H354.582V163.533H427.918C455.053 163.533 477.054 141.9 477.054 114.767C477.054 90.9333 460.186 71.1333 437.452 66.7333C434.518 66 431.218 65.6333 427.918 65.6333H391.983C382.816 65.6333 375.482 58.3 375.482 49.5C375.482 40.3333 382.816 33 391.983 33Z" fill="#B71C1C"/>
  <path d="M310.179 0V90.2C310.179 112.933 291.845 130.9 269.111 130.9C246.743 130.9 228.409 112.933 228.409 90.2V0H195.774V90.2C195.774 130.9 228.776 163.9 269.111 163.9C309.813 163.9 342.814 130.9 342.814 90.2V0H310.179Z" fill="white"/>
</svg>
